<?xml version="1.0" standalone="no"?>
<!DOCTYPE svg PUBLIC "-//W3C//DTD SVG 20010904//EN"
 "http://www.w3.org/TR/2001/REC-SVG-20010904/DTD/svg10.dtd">
<svg version="1.0" xmlns="http://www.w3.org/2000/svg"
 width="638.000000pt" height="638.000000pt" viewBox="0 0 638.000000 638.000000"
 preserveAspectRatio="xMidYMid meet">
<metadata>
Created by potrace 1.14, written by Peter Selinger 2001-2017
</metadata>
<g transform="translate(0.000000,638.000000) scale(0.100000,-0.100000)"
fill="#000000" stroke="none">
<path d="M3435 6351 c-57 -26 -109 -87 -204 -241 -135 -217 -193 -283 -366
-415 -112 -85 -326 -299 -426 -425 -148 -186 -278 -388 -379 -590 -190 -379
-237 -565 -227 -905 6 -219 23 -314 93 -525 74 -224 227 -511 344 -645 62 -72
84 -126 84 -206 0 -61 -6 -77 -67 -205 -184 -384 -271 -748 -284 -1185 -13
-443 46 -697 197 -849 104 -105 227 -150 411 -150 192 0 361 45 594 160 242
119 395 230 580 421 361 374 626 883 741 1424 37 174 39 365 6 500 -34 140
-112 284 -252 470 -66 88 -134 188 -152 223 -28 57 -30 68 -25 135 5 75 14
101 102 296 131 294 289 914 315 1239 17 213 -7 425 -70 614 -105 316 -347
595 -677 782 -169 95 -255 115 -338 77z m131 -773 c-7 -18 -37 -87 -66 -153
-113 -260 -269 -676 -343 -915 -152 -488 -223 -848 -234 -1177 l-6 -182 -39
-16 c-41 -16 -115 -20 -136 -6 -32 20 -22 250 19 471 86 454 333 1132 669
1838 66 137 76 153 104 161 47 14 47 13 32 -21z m61 18 c-21 -54 -109 -339
-163 -526 -123 -425 -221 -855 -263 -1161 -24 -169 -43 -443 -39 -543 l3 -70
-60 -37 c-33 -20 -87 -51 -119 -69 l-59 -34 6 155 c3 85 13 208 22 274 63 479
265 1143 556 1828 66 155 88 197 103 197 11 0 16 -5 13 -14z m63 6 c0 -5 -11
-42 -25 -83 -92 -267 -194 -685 -245 -999 -62 -384 -75 -802 -34 -1051 l6 -35
-101 -62 c-56 -34 -104 -62 -108 -62 -3 0 -3 96 0 213 10 389 104 880 291
1527 59 207 162 535 173 553 6 10 43 9 43 -1z m54 -15 c17 -12 16 -22 -18
-177 -165 -769 -223 -1437 -160 -1830 5 -35 5 -35 -76 -84 -44 -27 -82 -47
-84 -45 -2 2 -10 49 -16 104 -16 127 -16 463 -1 620 41 410 142 883 278 1300
46 142 43 137 77 112z m-343 -178 c-263 -549 -500 -1166 -601 -1569 -55 -223
-80 -377 -87 -548 -7 -162 -4 -160 -84 -59 -35 44 -39 55 -39 106 0 82 27 285
56 422 94 447 316 1025 605 1576 l90 171 67 35 c37 20 68 34 69 33 2 -2 -32
-77 -76 -167z m418 83 c-15 -71 -58 -389 -75 -562 -24 -239 -24 -736 -1 -900
l17 -115 -86 -175 c-101 -204 -96 -206 -115 30 -28 361 44 1012 182 1640 39
176 35 168 63 141 20 -19 22 -27 15 -59z m65 -36 c14 -29 16 -81 16 -338 0
-166 5 -405 11 -530 l12 -226 -41 -124 c-62 -186 -108 -295 -115 -272 -8 28
-25 220 -32 364 -11 229 23 683 76 1025 11 72 22 136 25 144 6 19 28 -1 48
-43z m-704 -228 c-139 -277 -186 -383 -295 -653 -171 -425 -285 -859 -302
-1152 -3 -56 -10 -100 -14 -97 -5 2 -33 49 -64 103 -38 68 -55 110 -55 134 0
51 72 332 131 509 100 301 248 662 429 1051 81 173 85 179 154 240 76 67 136
117 140 117 2 0 -54 -114 -124 -252z m764 95 c80 -242 81 -587 3 -858 l-11
-40 -7 80 c-9 108 -24 895 -16 895 3 0 17 -35 31 -77z m-917 -130 c-58 -115
-212 -465 -290 -658 -142 -351 -235 -635 -281 -856 l-24 -114 -19 45 c-11 25
-25 67 -32 93 -11 47 -10 54 57 255 168 502 434 1095 550 1226 31 36 58 63 60
61 2 -1 -8 -25 -21 -52z m-192 -232 c-134 -268 -296 -657 -399 -960 -37 -107
-69 -197 -73 -200 -12 -12 8 238 26 321 51 227 183 524 318 715 54 77 161 213
168 213 3 0 -15 -40 -40 -89z m841 -2143 c26 -12 26 -13 20 -83 -74 -800 -330
-1524 -688 -1950 -100 -119 -147 -163 -186 -174 -18 -5 -32 -8 -32 -6 0 2 26
40 58 85 401 560 644 1251 670 1904 l7 169 60 33 c71 40 58 37 91 22z m120
-82 l60 -54 -8 -103 c-48 -608 -291 -1214 -687 -1714 -115 -146 -204 -225
-254 -225 -6 0 17 28 50 63 231 241 449 656 577 1100 82 283 151 645 172 905
4 53 11 82 19 82 6 0 38 -24 71 -54z m-289 -128 c-29 -658 -270 -1346 -665
-1900 -57 -80 -83 -108 -99 -108 -12 0 -28 -3 -36 -6 -9 -3 53 131 137 298
227 450 370 800 454 1108 62 228 76 322 77 511 l0 166 60 36 c33 19 64 36 69
36 5 1 7 -58 3 -141z m-142 -35 c17 -202 -53 -534 -193 -909 -94 -252 -172
-428 -327 -739 -139 -278 -185 -358 -200 -343 -4 3 32 111 80 239 279 752 457
1370 483 1674 l7 90 64 37 c35 20 68 35 72 33 4 -3 10 -40 14 -82z m586 -29
l32 -60 -32 -145 c-107 -480 -244 -889 -392 -1179 -82 -159 -150 -256 -216
-305 -52 -38 -283 -159 -290 -151 -3 3 24 38 59 78 221 254 442 633 568 972
86 232 180 654 180 809 0 19 3 49 6 67 l7 32 23 -29 c13 -15 38 -55 55 -89z
m-751 -1 c0 -125 -78 -469 -185 -823 -91 -298 -377 -1115 -398 -1137 -11 -10
-37 6 -48 31 -10 20 30 162 272 972 275 916 285 948 314 966 40 24 45 23 45
-9z m-371 -945 c-165 -550 -275 -901 -277 -883 -1 17 -9 72 -18 124 -19 111
-16 140 37 361 66 277 175 622 329 1048 l74 202 60 34 c34 19 63 33 65 31 2
-2 -120 -415 -270 -917z m1202 765 c30 -89 32 -109 32 -223 0 -81 -6 -153 -17
-204 -56 -256 -205 -556 -383 -776 -72 -88 -226 -240 -198 -195 148 238 256
488 364 847 47 156 125 461 151 591 6 31 13 57 15 57 2 0 19 -44 36 -97z
m-1086 50 c-4 -10 -40 -108 -80 -218 -145 -400 -270 -804 -324 -1055 l-28
-125 -6 51 c-10 71 10 288 38 429 48 238 139 510 260 773 44 97 57 116 91 137
47 29 59 31 49 8z"/>
</g>
</svg>
